<?xml version="1.0" encoding="UTF-8"?>
<!-- Created with Inkscape (http://www.inkscape.org/) -->
<svg width="400" height="400" version="1.1" viewBox="0 0 400 400" xmlns="http://www.w3.org/2000/svg" xmlns:cc="http://creativecommons.org/ns#" xmlns:dc="http://purl.org/dc/elements/1.1/" xmlns:rdf="http://www.w3.org/1999/02/22-rdf-syntax-ns#">
 <metadata>
  <rdf:RDF>
   <cc:Work rdf:about="">
    <dc:format>image/svg+xml</dc:format>
    <dc:type rdf:resource="http://purl.org/dc/dcmitype/StillImage"/>
   </cc:Work>
  </rdf:RDF>
 </metadata>
 <g transform="translate(0 -652.36)" fill="#1a1a1a" fill-rule="evenodd" shape-rendering="auto">
  <path d="m375.94 751.25v-25.643-25.644-25.643h-350.41v25.643 25.644 25.643h350.41z" color="#ffffff" color-rendering="auto" image-rendering="auto" solid-color="#ffffff" style="isolation:auto;mix-blend-mode:normal"/>
  <g stroke="#fff" stroke-linecap="square">
   <g stroke-width="10">
    <path d="m165.11 770.94v23.263 23.263 23.263h23.263v-23.263-23.263-23.263h-23.263z" color="#ffffff" color-rendering="auto" image-rendering="auto" solid-color="#ffffff" style="isolation:auto;mix-blend-mode:normal"/>
    <path d="m188.37 770.94v23.263 23.263 23.263h23.263v-23.263-23.263-23.263h-23.263z" color="#ffffff" color-rendering="auto" image-rendering="auto" solid-color="#ffffff" style="isolation:auto;mix-blend-mode:normal"/>
    <path d="m211.63 770.94v23.263 23.263 23.263h23.263v-23.263-23.263-23.263h-23.263z" color="#ffffff" color-rendering="auto" image-rendering="auto" solid-color="#ffffff" style="isolation:auto;mix-blend-mode:normal"/>
    <path d="m234.89 863.99v23.263 23.263 23.263h23.263v-23.263-23.263-23.263h-23.263z" color="#ffffff" color-rendering="auto" image-rendering="auto" solid-color="#ffffff" style="isolation:auto;mix-blend-mode:normal"/>
    <path d="m258.16 863.99v23.263 23.263 23.263h23.263v-23.263-23.263-23.263h-23.263z" color="#ffffff" color-rendering="auto" image-rendering="auto" solid-color="#ffffff" style="isolation:auto;mix-blend-mode:normal"/>
    <path d="m281.42 863.99v23.263 23.263 23.263h23.263v-23.263-23.263-23.263h-23.263z" color="#ffffff" color-rendering="auto" image-rendering="auto" solid-color="#ffffff" style="isolation:auto;mix-blend-mode:normal"/>
   </g>
   <g stroke-width="10">
    <path d="m304.68 747.68h23.262m0-69.788h-23.262" color="#ffffff" color-rendering="auto" image-rendering="auto" solid-color="#ffffff" style="isolation:auto;mix-blend-mode:normal"/>
    <path d="m327.94 747.68h23.263m0-69.788h-23.263" color="#ffffff" color-rendering="auto" image-rendering="auto" solid-color="#ffffff" style="isolation:auto;mix-blend-mode:normal"/>
    <path d="m351.21 747.68h23.263v-69.788h-23.263" color="#ffffff" color-rendering="auto" image-rendering="auto" solid-color="#ffffff" style="isolation:auto;mix-blend-mode:normal"/>
   </g>
   <g stroke-width="10">
    <path d="m95.319 957.04v23.263 23.263 23.263h23.263v-23.263-23.263-23.263h-23.263z" color="#ffffff" color-rendering="auto" image-rendering="auto" solid-color="#ffffff" style="isolation:auto;mix-blend-mode:normal"/>
    <path d="m118.58 957.04v23.263 23.263 23.263h23.263v-23.263-23.263-23.263h-23.263z" color="#ffffff" color-rendering="auto" image-rendering="auto" solid-color="#ffffff" style="isolation:auto;mix-blend-mode:normal"/>
    <path d="m141.84 957.04v23.263 23.263 23.263h23.263v-23.263-23.263-23.263h-23.263z" color="#ffffff" color-rendering="auto" image-rendering="auto" solid-color="#ffffff" style="isolation:auto;mix-blend-mode:normal"/>
   </g>
   <g stroke-width="10">
    <path d="m95.319 677.89h-23.262v69.788h23.262" color="#ffffff" color-rendering="auto" image-rendering="auto" solid-color="#ffffff" style="isolation:auto;mix-blend-mode:normal"/>
    <path d="m72.056 747.68v-23.263-23.263-23.263h-23.263v23.263 23.263 23.263h23.263z" color="#ffffff" color-rendering="auto" image-rendering="auto" solid-color="#ffffff" style="isolation:auto;mix-blend-mode:normal"/>
    <path d="m48.794 747.68v-23.263-23.263-23.263h-23.263v23.263 23.263 23.263h23.263z" color="#ffffff" color-rendering="auto" image-rendering="auto" solid-color="#ffffff" style="isolation:auto;mix-blend-mode:normal"/>
    <path d="m121.45 747.68h10.52m0-69.788h-10.52" color="#ffffff" color-rendering="auto" image-rendering="auto" solid-color="#ffffff" style="isolation:auto;mix-blend-mode:normal"/>
    <path d="m158.09 747.68h10.52m0-69.788h-10.52" color="#ffffff" color-rendering="auto" image-rendering="auto" solid-color="#ffffff" style="isolation:auto;mix-blend-mode:normal"/>
    <path d="m194.74 747.68h10.52m0-69.788h-10.52" color="#ffffff" color-rendering="auto" image-rendering="auto" solid-color="#ffffff" style="isolation:auto;mix-blend-mode:normal"/>
    <path d="m231.39 747.68h10.52m0-69.788h-10.52" color="#ffffff" color-rendering="auto" image-rendering="auto" solid-color="#ffffff" style="isolation:auto;mix-blend-mode:normal"/>
    <path d="m268.03 747.68h10.52m0-69.788h-10.52" color="#ffffff" color-rendering="auto" image-rendering="auto" solid-color="#ffffff" style="isolation:auto;mix-blend-mode:normal"/>
   </g>
  </g>
 </g>
</svg>
